<?xml version="1.0" encoding="UTF-8" standalone="no"?>
<svg
   xmlns:dc="http://purl.org/dc/elements/1.1/"
   xmlns:cc="http://creativecommons.org/ns#"
   xmlns:rdf="http://www.w3.org/1999/02/22-rdf-syntax-ns#"
   xmlns:svg="http://www.w3.org/2000/svg"
   xmlns="http://www.w3.org/2000/svg"
   id="svg947"
   version="1.1"
   viewBox="0 0 536.92761 130.51234"
   height="130.51234mm"
   width="536.92761mm">
  <defs
     id="defs941">
    <clipPath
       id="clipPath831"
       clipPathUnits="userSpaceOnUse">
      <path
         id="path829"
         d="M 0,2000 H 2000 V 0 H 0 Z" />
    </clipPath>
  </defs>
  <metadata
     id="metadata944">
    <rdf:RDF>
      <cc:Work
         rdf:about="">
        <dc:format>image/svg+xml</dc:format>
        <dc:type
           rdf:resource="http://purl.org/dc/dcmitype/StillImage" />
        <dc:title></dc:title>
      </cc:Work>
    </rdf:RDF>
  </metadata>
  <g
     transform="translate(210.75201,-59.111551)"
     id="layer1">
    <g
       id="g825"
       transform="matrix(0.35277777,0,0,-0.35277777,-295.06592,477.14543)">
      <g
         clip-path="url(#clipPath831)"
         id="g827">
        <g
           transform="translate(596.1646,965.7539)"
           id="g833">
          <path
             id="path835"
             style="fill:#ffffff;fill-opacity:1;fill-rule:nonzero;stroke:none"
             d="m 0,0 v 11.965 h 51.346 c 3.202,0 5.667,0.815 7.396,2.45 1.726,1.633 2.59,3.799 2.59,6.5 0,2.951 -0.864,5.165 -2.59,6.642 -1.729,1.474 -4.194,2.214 -7.396,2.214 H 19.879 c -3.204,0 -6.11,0.486 -8.714,1.46 -2.608,0.974 -4.807,2.323 -6.596,4.052 -1.79,1.726 -3.173,3.783 -4.145,6.17 -0.975,2.387 -1.46,4.994 -1.46,7.82 0,2.764 0.454,5.323 1.365,7.678 0.911,2.356 2.261,4.382 4.052,6.077 1.79,1.696 4.003,3.029 6.641,4.004 2.639,0.973 5.653,1.46 9.045,1.46 H 69.246 V 56.527 H 20.067 c -2.765,0 -4.899,-0.738 -6.406,-2.213 C 12.152,52.836 11.4,50.78 11.4,48.143 c 0,-2.639 0.766,-4.68 2.304,-6.124 1.536,-1.446 3.621,-2.167 6.255,-2.167 h 31.325 c 6.96,0 12.244,-1.634 15.85,-4.899 3.606,-3.267 5.409,-8.229 5.409,-14.886 0,-2.889 -0.437,-5.558 -1.308,-8.008 C 70.363,9.609 69.054,7.489 67.312,5.7 65.567,3.91 63.364,2.511 60.705,1.507 58.045,0.501 54.925,0 51.346,0 Z" />
        </g>
        <path
           id="path837"
           style="fill:#ffffff;fill-opacity:1;fill-rule:nonzero;stroke:none"
           d="m 701.586,1005.606 h 37.968 v -10.081 h -37.968 z m -20.631,-39.852 v 68.492 h 61.238 v -11.965 H 692.92 v -44.562 h 49.367 v -11.965 z" />
        <g
           transform="translate(825.7583,965.7539)"
           id="g839">
          <path
             id="path841"
             style="fill:#ffffff;fill-opacity:1;fill-rule:nonzero;stroke:none"
             d="m 0,0 -10.27,17.24 h -32.408 l 5.653,9.704 h 21.009 L -31.278,52.57 -62.369,0 H -76.03 l 39.382,65.572 c 0.69,1.193 1.507,2.134 2.449,2.827 0.942,0.69 2.073,1.036 3.391,1.036 1.319,0 2.434,-0.346 3.345,-1.036 0.909,-0.693 1.71,-1.634 2.403,-2.827 L 14.415,0 Z" />
        </g>
        <g
           transform="translate(934.6689,965.7539)"
           id="g843">
          <path
             id="path845"
             style="fill:#ffffff;fill-opacity:1;fill-rule:nonzero;stroke:none"
             d="M 0,0 -13.095,48.143 -32.503,3.579 C -33.196,2.134 -34.027,1.021 -35,0.235 c -0.975,-0.785 -2.183,-1.178 -3.627,-1.178 -2.827,0 -4.868,1.508 -6.123,4.522 L -64.065,48.143 -77.16,0 h -11.777 l 17.618,64.442 c 0.816,3.264 2.795,4.898 5.936,4.898 1.255,0 2.433,-0.345 3.532,-1.036 1.099,-0.692 1.932,-1.696 2.497,-3.014 L -38.25,16.864 -17.146,65.29 c 1.129,2.7 3.045,4.05 5.747,4.05 2.888,0 4.804,-1.634 5.747,-4.898 L 11.871,0 Z" />
        </g>
        <g
           transform="translate(1027.75,965.7539)"
           id="g847">
          <path
             id="path849"
             style="fill:#ffffff;fill-opacity:1;fill-rule:nonzero;stroke:none"
             d="m 0,0 -10.27,17.24 h -32.408 l 5.652,9.704 h 21.01 L -31.278,52.57 -62.37,0 h -13.66 l 39.382,65.572 c 0.69,1.193 1.506,2.134 2.449,2.827 0.942,0.69 2.073,1.036 3.391,1.036 1.319,0 2.434,-0.346 3.345,-1.036 0.909,-0.693 1.71,-1.634 2.402,-2.827 L 14.415,0 Z" />
        </g>
        <g
           transform="translate(1062.5127,1015.8745)"
           id="g851">
          <path
             id="path853"
             style="fill:#ffffff;fill-opacity:1;fill-rule:nonzero;stroke:none"
             d="M 0,0 V -50.121 H -11.399 V 12.06 c 0,2.197 0.549,3.941 1.649,5.229 1.099,1.286 2.591,1.931 4.476,1.931 0.878,0 1.725,-0.189 2.543,-0.566 0.815,-0.376 1.663,-1.005 2.544,-1.884 l 48.331,-47.953 v 50.12 h 11.399 v -62.745 c 0,-2.261 -0.55,-4.021 -1.648,-5.276 -1.1,-1.256 -2.53,-1.884 -4.287,-1.884 -1.948,0 -3.769,0.847 -5.464,2.543 z" />
        </g>
        <g
           transform="translate(1176.2256,1015.8745)"
           id="g855">
          <path
             id="path857"
             style="fill:#ffffff;fill-opacity:1;fill-rule:nonzero;stroke:none"
             d="M 0,0 V -50.121 H -11.399 V 12.06 c 0,2.197 0.549,3.941 1.648,5.229 1.1,1.286 2.592,1.931 4.476,1.931 0.879,0 1.726,-0.189 2.543,-0.566 0.816,-0.376 1.664,-1.005 2.545,-1.884 l 48.33,-47.953 v 50.12 h 11.4 v -62.745 c 0,-2.261 -0.55,-4.021 -1.649,-5.276 -1.099,-1.256 -2.529,-1.884 -4.286,-1.884 -1.948,0 -3.769,0.847 -5.465,2.543 z" />
        </g>
        <path
           id="path859"
           style="fill:#ffffff;fill-opacity:1;fill-rule:nonzero;stroke:none"
           d="m 1269.872,1005.606 h 37.969 v -10.081 h -37.969 z m -20.632,-39.852 v 68.492 h 61.239 v -11.965 h -49.273 v -44.562 h 49.366 v -11.965 z" />
        <g
           transform="translate(1344.582,965.7539)"
           id="g861">
          <path
             id="path863"
             style="fill:#ffffff;fill-opacity:1;fill-rule:nonzero;stroke:none"
             d="M 0,0 V 56.527 H -26.003 V 68.492 H 37.968 V 56.527 H 11.966 V 0 Z" />
        </g>
        <g
           transform="translate(1446.1426,988.6475)"
           id="g865">
          <path
             id="path867"
             style="fill:#ffffff;fill-opacity:1;fill-rule:nonzero;stroke:none"
             d="m 0,0 -10.646,-20.067 c -0.692,-1.257 -1.571,-2.2 -2.638,-2.827 -1.07,-0.627 -2.231,-0.943 -3.486,-0.943 -2.765,0 -4.837,1.256 -6.218,3.77 l -35.425,65.666 h 14.321 L -16.393,-7.065 -6.029,11.588 -23.836,45.599 H -9.422 L 17.052,-7.065 44.939,45.599 H 58.317 L 22.893,-20.067 c -0.692,-1.257 -1.586,-2.2 -2.685,-2.827 -1.1,-0.627 -2.277,-0.943 -3.533,-0.943 -1.257,0 -2.418,0.316 -3.485,0.943 -1.07,0.627 -1.948,1.57 -2.638,2.827 z" />
        </g>
        <g
           transform="translate(1552.5098,977.7187)"
           id="g869">
          <path
             id="path871"
             style="fill:#ffffff;fill-opacity:1;fill-rule:nonzero;stroke:none"
             d="m 0,0 c 3.14,0 6.029,0.565 8.666,1.695 2.639,1.132 4.914,2.686 6.831,4.665 1.916,1.978 3.407,4.348 4.476,7.113 1.066,2.762 1.601,5.747 1.601,8.949 0,3.204 -0.535,6.171 -1.601,8.903 -1.069,2.732 -2.56,5.072 -4.476,7.019 -1.917,1.947 -4.192,3.47 -6.831,4.57 C 6.029,44.013 3.14,44.562 0,44.562 h -16.676 c -3.078,0 -5.922,-0.549 -8.526,-1.648 -2.608,-1.1 -4.853,-2.623 -6.736,-4.57 -1.885,-1.947 -3.361,-4.272 -4.428,-6.97 -1.071,-2.703 -1.603,-5.687 -1.603,-8.952 0,-3.202 0.532,-6.187 1.603,-8.949 1.067,-2.765 2.543,-5.135 4.428,-7.113 1.883,-1.979 4.128,-3.533 6.736,-4.665 C -22.598,0.565 -19.754,0 -16.676,0 Z m -16.676,-11.965 c -4.774,0 -9.186,0.895 -13.237,2.685 -4.052,1.791 -7.57,4.239 -10.552,7.349 -2.984,3.11 -5.308,6.797 -6.973,11.07 -1.664,4.27 -2.496,8.886 -2.496,13.849 0,5.024 0.832,9.609 2.496,13.754 1.665,4.147 3.989,7.68 6.973,10.6 2.982,2.921 6.5,5.182 10.552,6.784 4.051,1.601 8.463,2.401 13.237,2.401 H 0 c 4.96,0 9.498,-0.817 13.612,-2.449 4.114,-1.634 7.647,-3.926 10.601,-6.877 2.951,-2.953 5.243,-6.486 6.877,-10.599 1.633,-4.115 2.449,-8.653 2.449,-13.614 0,-4.963 -0.833,-9.579 -2.496,-13.849 C 29.378,4.866 27.053,1.179 24.071,-1.931 21.086,-5.041 17.554,-7.489 13.473,-9.28 9.389,-11.07 4.898,-11.965 0,-11.965 Z" />
        </g>
        <g
           transform="translate(1661.2295,965.7539)"
           id="g873">
          <path
             id="path875"
             style="fill:#ffffff;fill-opacity:1;fill-rule:nonzero;stroke:none"
             d="m 0,0 -17.336,19.031 h -25.626 v 10.552 h 28.547 c 4.334,0 7.599,1.178 9.799,3.532 2.197,2.355 3.298,5.762 3.298,10.223 0,4.458 -1.147,7.772 -3.433,9.94 -2.288,2.166 -5.502,3.249 -9.639,3.249 H -51.628 V 0 h -11.966 v 68.492 h 49.179 c 3.894,0 7.38,-0.581 10.458,-1.742 3.077,-1.164 5.683,-2.827 7.82,-4.993 2.134,-2.168 3.768,-4.791 4.898,-7.867 1.132,-3.078 1.697,-6.534 1.697,-10.365 0,-5.714 -1.241,-10.504 -3.722,-14.366 C 4.255,25.296 0.784,22.517 -3.675,20.821 L 16.958,0 Z" />
        </g>
        <g
           transform="translate(1742.7236,965.7539)"
           id="g877">
          <path
             id="path879"
             style="fill:#ffffff;fill-opacity:1;fill-rule:nonzero;stroke:none"
             d="m 0,0 -38.346,30.148 c -1.068,0.816 -1.742,1.616 -2.026,2.402 -0.282,0.785 -0.424,1.649 -0.424,2.591 0,1.067 0.189,2.01 0.567,2.827 0.376,0.815 1.192,1.696 2.449,2.637 L -1.509,68.492 H 16.863 L -27.982,35.046 18.276,0 Z m -56.435,68.492 h 11.966 V 0 h -11.966 z" />
        </g>
        <g
           transform="translate(497.8193,885.543)"
           id="g881">
          <path
             id="path883"
             style="fill:#ffffff;fill-opacity:1;fill-rule:nonzero;stroke:none"
             d="m 0,0 c -7.904,7.912 -15.808,15.823 -23.637,23.658 3.495,4.78 6.492,8.942 9.16,12.768 h -22.164 c -21.764,-24.688 -53.596,-40.281 -89.096,-40.281 -35.338,0 -67.055,15.443 -88.819,39.931 h -22.492 c 3.194,-4.531 6.681,-8.983 10.507,-13.355 -1.988,-1.217 -4.001,-2.004 -5.428,-3.394 -8.184,-7.973 -16.303,-16.015 -24.285,-24.19 -3.347,-3.428 -3.337,-8.302 -0.447,-11.464 2.855,-3.124 7.564,-3.203 11.374,0.093 2.641,2.285 4.988,4.91 7.475,7.373 7.158,7.092 14.319,14.18 21.597,21.387 23.773,-20.703 51.206,-31.875 82.771,-34.15 v -5.708 c 0,-11.058 -0.018,-22.116 0.008,-33.174 0.016,-6.567 2.575,-9.88 7.627,-10.011 5.333,-0.139 7.844,3.099 7.871,10.198 0.019,4.976 0.004,9.952 0.004,14.928 v 23.51 c 38.107,5.386 42.187,7.069 83.097,34.188 1.123,-1.05 2.343,-2.124 3.485,-3.274 8.189,-8.232 16.315,-16.526 24.56,-24.699 3.773,-3.74 8.461,-3.979 11.832,-0.905 3.204,2.92 3.11,7.846 -0.344,11.849 C 3.215,-3.052 1.562,-1.564 0,0" />
        </g>
        <g
           transform="translate(283.7876,1079.9902)"
           id="g885">
          <path
             id="path887"
             style="fill:#ffffff;fill-opacity:1;fill-rule:nonzero;stroke:none"
             d="m 0,0 c 21.748,24.141 53.245,39.326 88.295,39.326 35.05,0 66.547,-15.185 88.295,-39.326 h 22.398 c -2.657,3.721 -5.487,7.368 -8.534,10.923 1.282,1.354 2.136,2.303 3.04,3.201 8.369,8.312 16.81,16.551 25.09,24.95 3.602,3.654 3.669,8.631 0.56,11.872 -3.119,3.252 -7.831,3.032 -11.779,-0.629 -1.756,-1.628 -3.389,-3.386 -5.084,-5.079 -7.642,-7.629 -15.286,-15.255 -21.7,-21.656 -13.954,7.927 -26.73,15.853 -40.103,22.593 -13.586,6.846 -28.553,9.237 -44.421,10.429 0,13.302 0.024,26.001 -0.011,38.7 -0.017,6.442 -2.773,9.741 -7.94,9.683 -4.956,-0.055 -7.523,-3.192 -7.545,-9.426 C 80.52,83.95 80.442,72.337 80.613,60.729 80.662,57.409 79.561,56.264 76.266,56.036 53.383,54.458 32.477,46.979 13.44,34.293 7.957,30.639 2.775,26.532 -2.723,22.501 c -9.192,9.124 -18.297,18.204 -27.455,27.23 -4.188,4.128 -8.78,4.61 -12.192,1.434 -3.48,-3.238 -3.17,-8.344 0.95,-12.692 3.041,-3.209 6.285,-6.225 9.402,-9.362 5.944,-5.981 11.863,-11.986 18.027,-18.22 -3.08,-3.601 -5.935,-7.293 -8.611,-11.058 1.429,0.081 2.854,0.167 4.327,0.167 z" />
        </g>
        <g
           transform="translate(497.4058,1032.8057)"
           id="g889">
          <path
             id="path891"
             style="fill:#ffffff;fill-opacity:1;fill-rule:nonzero;stroke:none"
             d="m 0,0 -15.93,-0.322 0.322,-39.998 v -28.176 l -65.951,65.429 c -1.231,1.236 -2.436,2.127 -3.572,2.65 -1.161,0.53 -2.379,0.802 -3.623,0.802 -2.663,0 -4.809,-0.928 -6.368,-2.758 -1.552,-1.818 -2.335,-4.292 -2.335,-7.365 l 0.322,-85.466 15.929,0.322 -0.321,40.097 v 28.075 l 65.692,-66.076 c 2.373,-2.373 4.967,-3.579 7.706,-3.579 2.493,0 4.55,0.903 6.115,2.688 1.547,1.774 2.336,4.28 2.336,7.442 z" />
        </g>
        <g
           transform="translate(248.4116,935.8613)"
           id="g893">
          <path
             id="path895"
             style="fill:#ffffff;fill-opacity:1;fill-rule:nonzero;stroke:none"
             d="m 0,0 v 22.689 h 97.37 c 6.074,0 10.748,1.547 14.025,4.646 3.275,3.096 4.913,7.205 4.913,12.327 0,5.598 -1.638,9.796 -4.913,12.596 -3.277,2.797 -7.951,4.198 -14.025,4.198 H 37.697 c -6.074,0 -11.585,0.922 -16.526,2.77 -4.944,1.845 -9.111,4.405 -12.506,7.682 -3.394,3.275 -6.016,7.175 -7.861,11.702 -1.848,4.526 -2.769,9.47 -2.769,14.829 0,5.24 0.862,10.094 2.59,14.561 1.726,4.467 4.288,8.308 7.683,11.523 3.394,3.216 7.592,5.746 12.595,7.594 5.002,1.845 10.72,2.769 17.152,2.769 h 211.261 v -22.69 H 38.055 c -5.243,0 -9.291,-1.402 -12.15,-4.199 -2.858,-2.8 -4.287,-6.699 -4.287,-11.702 0,-5.003 1.454,-8.875 4.368,-11.612 2.915,-2.742 6.868,-4.11 11.865,-4.11 h 59.401 c 13.199,0 23.218,-3.098 30.058,-9.29 6.839,-6.195 10.259,-15.605 10.259,-28.229 0,-5.48 -0.83,-10.541 -2.482,-15.186 -1.652,-4.645 -4.134,-8.665 -7.44,-12.059 C 124.339,7.414 120.163,4.762 115.119,2.858 110.074,0.951 104.159,0 97.37,0 Z" />
        </g>
      </g>
    </g>
  </g>
</svg>
